<svg width="56" height="82" viewBox="0 0 56 82" fill="none" xmlns="http://www.w3.org/2000/svg">
<path d="M49.3635 37.2727V38.2727H50.3635C52.8937 38.2727 54.9544 40.3335 54.9545 42.8636V76.4091C54.9545 78.9392 52.8938 81 50.3636 81H5.6363C3.1062 81 1.04541 78.9393 1.04541 76.4091V42.8636C1.04541 40.3335 3.10608 38.2727 5.6363 38.2727H6.6363V37.2727V22.3636C6.6363 10.5843 16.2205 1 27.9999 1C39.7793 1 49.3635 10.5843 49.3635 22.3636V37.2727ZM53.2272 48.4545V47.4545H52.2272H46.6363C46.1599 47.4545 45.7727 47.0673 45.7727 46.5909C45.7727 46.1145 46.1599 45.7273 46.6363 45.7273H51.227H52.227H52.2272V44.7273H53.227V42.8634C53.227 41.2844 51.9427 39.9998 50.3635 39.9998H48.4999C48.0235 39.9998 47.6363 39.6127 47.6363 39.1363V22.3636C47.6363 11.5352 38.8283 2.72716 27.9999 2.72716C17.1715 2.72716 8.36346 11.5352 8.36346 22.3636V37.2727V38.2727H9.36346H39.1815H40.1815V37.2727V22.3636C40.1815 15.6445 34.7188 10.1818 27.9997 10.1818C21.2806 10.1818 15.8179 15.6445 15.8179 22.3636V31.6818C15.8179 32.1582 15.4308 32.5454 14.9544 32.5454C14.478 32.5454 14.0908 32.1582 14.0908 31.6818V22.3636C14.0908 14.6954 20.3317 8.45447 27.9999 8.45447C35.6681 8.45447 41.909 14.6954 41.909 22.3636V39.1366C41.909 39.613 41.5218 40.0002 41.0454 40.0002H5.6363C4.05731 40.0002 2.77273 41.2845 2.77273 42.8637V44.7273V45.7273H3.77273H9.36362C9.84002 45.7273 10.2272 46.1145 10.2272 46.5909C10.2272 47.0673 9.84002 47.4545 9.36362 47.4545H3.77273H2.77273V48.4545V70.8181V71.8181H3.77273H9.36362C9.84002 71.8181 10.2272 72.2052 10.2272 72.6816C10.2272 73.158 9.84002 73.5452 9.36362 73.5452H3.77273H2.77273V74.5452V76.4088C2.77273 77.9878 4.05704 79.2724 5.6363 79.2724H50.3636C51.9426 79.2724 53.2272 77.988 53.2272 76.4088V74.5452V73.5452H52.2272H46.6363C46.1599 73.5452 45.7727 73.158 45.7727 72.6816C45.7727 72.2052 46.1599 71.8181 46.6363 71.8181H52.2272H53.2272V70.8181V48.4545Z" fill="#55DBFF" stroke="#55DBFF" stroke-width="2"/>
</svg>
