<svg width="83" height="81" viewBox="0 0 83 81" fill="none" xmlns="http://www.w3.org/2000/svg">
<path d="M83 48.2813C83 46.2029 82.1734 44.2662 80.7486 42.8378C82.3637 41.0707 83.1868 38.7016 82.9619 36.2359C82.5573 31.8403 78.5974 28.3958 73.9426 28.3958H52.5805C53.6387 25.183 55.3333 19.2935 55.3333 14.5625C55.3333 7.0614 48.9596 0.729248 44.9583 0.729248C41.3685 0.729248 38.7989 2.75237 38.6918 2.83537C38.2802 3.16397 38.0416 3.66197 38.0416 4.18753V15.9147L28.0782 37.4913L27.6666 37.7022V37.0416C27.6666 36.0871 26.8918 35.3124 25.9373 35.3124H8.64578C3.87685 35.3125 0 39.1894 0 43.9583V71.625C0 76.3941 3.87685 80.2708 8.64578 80.2708H19.0208C22.7592 80.2708 25.9547 77.8846 27.1582 74.5542C30.0356 76.0344 33.9089 76.8125 36.3125 76.8125H68.0566C71.8227 76.8125 75.1186 74.2741 75.8931 70.7743C76.2908 68.969 76.0591 67.1534 75.2706 65.5764C77.8229 64.2933 79.5417 61.6547 79.5417 58.6563C79.5417 57.432 79.2616 56.2597 78.7325 55.2014C81.2847 53.9149 83 51.2797 83 48.2813ZM75.7064 52.5488C75.039 52.6284 74.4752 53.0813 74.2608 53.7212C74.0499 54.361 74.2263 55.063 74.7173 55.5264C75.5958 56.353 76.0834 57.4666 76.0834 58.6563C76.0834 60.8384 74.4338 62.6714 72.2517 62.9238C71.5843 63.0034 71.0204 63.4563 70.8061 64.0962C70.5952 64.736 70.7716 65.438 71.2626 65.9014C72.4005 66.9735 72.857 68.4778 72.5146 70.0273C72.0892 71.957 70.2148 73.3543 68.0568 73.3543H36.3125C33.5043 73.3543 28.794 72.0366 27.1618 70.4008C26.6672 69.9098 25.9202 69.7645 25.2769 70.0273C24.6303 70.2936 24.2083 70.9265 24.2083 71.625C24.2083 74.4851 21.8809 76.8125 19.0208 76.8125H8.64578C5.78568 76.8125 3.45828 74.4851 3.45828 71.625V43.9583C3.45828 41.0982 5.78568 38.7708 8.64578 38.7708H24.2083V40.5C24.2083 41.0984 24.5195 41.6551 25.0313 41.9733C25.5363 42.2776 26.1726 42.3087 26.7121 42.0459L30.1703 40.3167C30.5197 40.1437 30.7998 39.8532 30.9658 39.4971L41.3408 17.0178C41.4446 16.7896 41.4998 16.5406 41.4998 16.2916V5.12468C42.2193 4.72703 43.4678 4.18753 44.9583 4.18753C46.8535 4.18753 51.875 8.89778 51.875 14.5625C51.875 20.6493 48.562 29.4229 48.5308 29.5095C48.3303 30.0386 48.3994 30.637 48.721 31.1073C49.046 31.5741 49.5787 31.8543 50.1458 31.8543H73.9426C76.8269 31.8543 79.2754 33.9189 79.5174 36.5541C79.7008 38.5254 78.7531 40.3998 77.0551 41.4477C76.526 41.7728 76.2113 42.3607 76.2355 42.9866C76.2597 43.6125 76.6194 44.1728 77.1727 44.4599C78.6355 45.2035 79.5416 46.6698 79.5416 48.2813C79.5417 50.4634 77.8921 52.2964 75.7064 52.5488Z" fill="#55DBFF"/>
</svg>
