<svg width="82" height="82" viewBox="0 0 82 82" fill="none" xmlns="http://www.w3.org/2000/svg">
<path d="M40.9998 57.7726C42.029 57.7726 42.8634 56.9382 42.8634 55.909C42.8634 54.8798 42.029 54.0454 40.9998 54.0454C39.9706 54.0454 39.1362 54.8798 39.1362 55.909C39.1362 56.9382 39.9706 57.7726 40.9998 57.7726Z" fill="#55DBFF"/>
<path d="M40.9999 48.4546C36.8887 48.4546 33.5454 51.798 33.5454 55.9091C33.5454 59.3716 35.9309 62.266 39.1363 63.099V68.9544C39.1363 69.9831 39.9712 70.818 40.9999 70.818C42.0286 70.818 42.8635 69.9831 42.8635 68.9544V63.099C46.069 62.266 48.4543 59.3716 48.4543 55.9091C48.4543 51.798 45.1111 48.4546 40.9999 48.4546ZM40.9999 59.6365C38.9443 59.6365 37.2726 57.9648 37.2726 55.9092C37.2726 53.8536 38.9443 52.1819 40.9999 52.1819C43.0555 52.1819 44.7272 53.8536 44.7272 55.9092C44.7272 57.9648 43.0555 59.6365 40.9999 59.6365Z" fill="#55DBFF"/>
<path d="M62.3635 37.2727V38.2727H63.3635C65.8937 38.2727 67.9544 40.3335 67.9545 42.8636V76.4091C67.9545 78.9392 65.8938 81 63.3636 81H18.6363C16.1062 81 14.0454 78.9393 14.0454 76.4091V42.8636C14.0454 40.3335 16.1061 38.2727 18.6363 38.2727H19.6363V37.2727V22.3636C19.6363 10.5843 29.2205 1 40.9999 1C52.7793 1 62.3635 10.5843 62.3635 22.3636V37.2727ZM66.2272 48.4545V47.4545H65.2272H59.6363C59.1599 47.4545 58.7727 47.0673 58.7727 46.5909C58.7727 46.1145 59.1599 45.7273 59.6363 45.7273H64.227H65.227H65.2272V44.7273H66.227V42.8634C66.227 41.2844 64.9427 39.9998 63.3635 39.9998H61.4999C61.0235 39.9998 60.6363 39.6127 60.6363 39.1363V22.3636C60.6363 11.5352 51.8283 2.72716 40.9999 2.72716C30.1715 2.72716 21.3635 11.5352 21.3635 22.3636V37.2727V38.2727H22.3635H52.1815H53.1815V37.2727V22.3636C53.1815 15.6445 47.7188 10.1818 40.9997 10.1818C34.2806 10.1818 28.8179 15.6445 28.8179 22.3636V31.6818C28.8179 32.1582 28.4308 32.5454 27.9544 32.5454C27.478 32.5454 27.0908 32.1582 27.0908 31.6818V22.3636C27.0908 14.6954 33.3317 8.45447 40.9999 8.45447C48.6681 8.45447 54.909 14.6954 54.909 22.3636V39.1366C54.909 39.613 54.5218 40.0002 54.0454 40.0002H18.6363C17.0573 40.0002 15.7727 41.2845 15.7727 42.8637V44.7273V45.7273H16.7727H22.3636C22.84 45.7273 23.2272 46.1145 23.2272 46.5909C23.2272 47.0673 22.84 47.4545 22.3636 47.4545H16.7727H15.7727V48.4545V70.8181V71.8181H16.7727H22.3636C22.84 71.8181 23.2272 72.2052 23.2272 72.6816C23.2272 73.158 22.84 73.5452 22.3636 73.5452H16.7727H15.7727V74.5452V76.4088C15.7727 77.9878 17.057 79.2724 18.6363 79.2724H63.3636C64.9426 79.2724 66.2272 77.988 66.2272 76.4088V74.5452V73.5452H65.2272H59.6363C59.1599 73.5452 58.7727 73.158 58.7727 72.6816C58.7727 72.2052 59.1599 71.8181 59.6363 71.8181H65.2272H66.2272V70.8181V48.4545Z" fill="#55DBFF" stroke="#55DBFF" stroke-width="2"/>
</svg>
