<svg width="85" height="85" viewBox="0 0 85 85" fill="none" xmlns="http://www.w3.org/2000/svg">
<g clip-path="url(#clip0_1_29567)">
<path d="M84.8361 46.4264C84.073 38.75 80.6435 31.5131 75.1792 26.0486C70.5094 21.3791 64.7938 18.3783 58.7796 17.044V12.8258C61.236 12.2147 63.0619 9.9912 63.0619 7.34835C63.0619 4.23585 60.5297 1.70374 57.4172 1.70374H45.4639C42.3514 1.70374 39.8193 4.23585 39.8193 7.34835C39.8193 9.99103 41.6452 12.2145 44.1014 12.8258V17.0558C38.1057 18.3957 32.4089 21.3923 27.7524 26.0488C26.7334 27.0678 25.7938 28.1368 24.9336 29.2478C24.8919 29.2447 24.8503 29.2415 24.8078 29.2415H12.9771C12.0604 29.2415 11.317 29.9848 11.317 30.9017C11.317 31.8186 12.0604 32.5619 12.9771 32.5619H22.6746C21.4574 34.5998 20.4759 36.7399 19.7288 38.943H1.66018C0.74343 38.943 0 39.6862 0 40.6031C0 41.5201 0.74343 42.2633 1.66018 42.2633H18.7906C18.3121 44.3636 18.0375 46.5011 17.9667 48.6446H10.6252C9.70841 48.6446 8.96498 49.3878 8.96498 50.3047C8.96498 51.2217 9.70841 51.9649 10.6252 51.9649H18.0196C18.1597 54.1139 18.5052 56.2515 19.0562 58.3462H8.30091C7.38416 58.3462 6.64073 59.0894 6.64073 60.0063C6.64073 60.9233 7.38416 61.6665 8.30091 61.6665H20.1158C21.7444 65.9749 24.2896 70.0129 27.7524 73.4757C33.2221 78.9454 40.4664 82.3756 48.1508 83.1348C49.2475 83.2431 50.345 83.2967 51.4411 83.2967C57.9194 83.2967 64.3155 81.4219 69.7426 77.8877C70.5109 77.3873 70.7282 76.3588 70.2279 75.5905C69.7275 74.8221 68.699 74.6048 67.9307 75.1052C56.0509 82.8412 40.1409 81.1685 30.1003 71.1279C18.3193 59.3469 18.3193 40.178 30.1003 28.3968C41.8811 16.616 61.05 16.616 72.8312 28.3968C82.8585 38.4243 84.5403 54.3207 76.8299 66.1947C76.3305 66.9637 76.5492 67.992 77.318 68.4912C78.0873 68.9906 79.1153 68.7719 79.6145 68.0029C83.7341 61.6586 85.5885 53.996 84.8361 46.4264ZM43.1397 7.34852C43.1397 6.06686 44.1823 5.02427 45.4639 5.02427H57.4172C58.6989 5.02427 59.7415 6.06686 59.7415 7.34852C59.7415 8.63018 58.6989 9.67278 57.4172 9.67278H57.1194H45.7616H45.4639C44.1823 9.67278 43.1397 8.63002 43.1397 7.34852ZM47.4218 16.485V12.9931H55.4592V16.479C52.7903 16.1616 50.0902 16.1636 47.4218 16.485Z" fill="#080F50"/>
<path d="M74.0059 70.6409C73.5676 70.6409 73.1409 70.8185 72.8323 71.1273C72.5218 71.4361 72.3457 71.8644 72.3457 72.301C72.3457 72.7376 72.5218 73.166 72.8323 73.4748C73.1409 73.7852 73.5677 73.9612 74.0059 73.9612C74.4425 73.9612 74.8691 73.7852 75.1796 73.4748C75.4884 73.166 75.666 72.7376 75.666 72.301C75.666 71.8644 75.4885 71.4361 75.1796 71.1273C74.8691 70.8185 74.4423 70.6409 74.0059 70.6409Z" fill="#080F50"/>
<path d="M51.4657 24.0077C37.2648 24.0077 25.7114 35.5609 25.7114 49.7619C25.7114 63.963 37.2648 75.5162 51.4657 75.5162C65.6665 75.5162 77.2199 63.963 77.2199 49.7619C77.2199 35.5609 65.6665 24.0077 51.4657 24.0077ZM51.4657 72.1958C39.0955 72.1958 29.0318 62.132 29.0318 49.7619C29.0318 37.3919 39.0955 27.3281 51.4657 27.3281C63.8358 27.3281 73.8995 37.3919 73.8995 49.7619C73.8995 62.132 63.8358 72.1958 51.4657 72.1958Z" fill="#080F50"/>
<path d="M61.9676 36.9126L53.7447 45.1353C53.0571 44.7953 52.2836 44.6032 51.466 44.6032C50.6482 44.6032 49.8748 44.7953 49.1872 45.1353L45.5071 41.4552C44.8586 40.8069 43.8077 40.8069 43.1591 41.4552C42.5108 42.1035 42.5108 43.1547 43.1591 43.803L46.8392 47.4832C46.499 48.1708 46.3071 48.9443 46.3071 49.7619C46.3071 52.6065 48.6212 54.9208 51.466 54.9208C54.3107 54.9208 56.6248 52.6065 56.6248 49.7619C56.6248 48.9443 56.4327 48.1708 56.0927 47.4832L64.0742 39.5017L64.3154 39.2604C64.9637 38.6121 64.9637 37.5609 64.3154 36.9126C63.6671 36.2643 62.6162 36.2643 61.9676 36.9126ZM51.466 51.6006C50.4523 51.6006 49.6275 50.7758 49.6275 49.7621C49.6275 48.7484 50.4523 47.9236 51.466 47.9236C52.4797 47.9236 53.3044 48.7484 53.3044 49.7621C53.3044 50.7758 52.4797 51.6006 51.466 51.6006Z" fill="#080F50"/>
<path d="M69.2164 48.1221H67.6782C66.7615 48.1221 66.0181 48.8653 66.0181 49.7822C66.0181 50.6991 66.7615 51.4424 67.6782 51.4424H69.2164C70.1331 51.4424 70.8765 50.6991 70.8765 49.7822C70.8765 48.8653 70.1331 48.1221 69.2164 48.1221Z" fill="#080F50"/>
<path d="M35.2533 48.0815H33.7153C32.7986 48.0815 32.0552 48.8248 32.0552 49.7417C32.0552 50.6586 32.7986 51.4019 33.7153 51.4019H35.2533C36.17 51.4019 36.9135 50.6586 36.9135 49.7417C36.9135 48.8248 36.17 48.0815 35.2533 48.0815Z" fill="#080F50"/>
<path d="M51.4858 35.2097C52.4026 35.2097 53.146 34.4665 53.146 33.5496V32.0116C53.146 31.0947 52.4026 30.3514 51.4858 30.3514C50.5691 30.3514 49.8257 31.0947 49.8257 32.0116V33.5496C49.8257 34.4665 50.5691 35.2097 51.4858 35.2097Z" fill="#080F50"/>
<path d="M51.4458 64.3145C50.5291 64.3145 49.7856 65.0577 49.7856 65.9746V67.5126C49.7856 68.4295 50.5291 69.1727 51.4458 69.1727C52.3625 69.1727 53.106 68.4295 53.106 67.5126V65.9746C53.106 65.0577 52.3625 64.3145 51.4458 64.3145Z" fill="#080F50"/>
<path d="M1.66016 58.3455C1.22354 58.3455 0.795215 58.5231 0.486426 58.8319C0.177637 59.1407 0 59.569 0 60.0056C0 60.4439 0.177471 60.8706 0.486426 61.1793C0.795381 61.4881 1.22354 61.6658 1.66016 61.6658C2.09678 61.6658 2.5251 61.4881 2.83372 61.1793C3.14251 60.8706 3.32031 60.4422 3.32031 60.0056C3.32031 59.569 3.14268 59.1407 2.83372 58.8319C2.5251 58.5231 2.09678 58.3455 1.66016 58.3455Z" fill="#080F50"/>
</g>
<defs>
<clipPath id="clip0_1_29567">
<rect width="85" height="85" fill="white"/>
</clipPath>
</defs>
</svg>
