<svg width="121" height="9" viewBox="0 0 121 9" fill="none" xmlns="http://www.w3.org/2000/svg">
<g clip-path="url(#clip0_1_862)">
<path d="M0 1.5C5.48 1.5 5.48 7.5 11 7.5C16.52 7.5 16.48 1.5 22 1.5C27.52 1.5 27.48 7.5 33 7.5C38.52 7.5 38.48 1.5 44 1.5C49.52 1.5 49.48 7.5 54.95 7.5C60.42 7.5 60.43 1.5 65.95 1.5C71.47 1.5 71.43 7.5 76.95 7.5C82.47 7.5 82.43 1.5 87.95 1.5C93.47 1.5 93.43 7.5 98.95 7.5C104.47 7.5 104.44 1.5 109.95 1.5C115.46 1.5 115.43 7.5 120.95 7.5" stroke="#55DBFF" stroke-width="2" stroke-miterlimit="10"/>
</g>
<defs>
<clipPath id="clip0_1_862">
<rect width="120.57" height="9" fill="white"/>
</clipPath>
</defs>
</svg>
